<svg xmlns="http://www.w3.org/2000/svg" viewBox="0 0 48 48" width="48" height="48">
  <defs>
    <linearGradient id="g1" x1="0%" y1="0%" x2="100%" y2="100%">
      <stop offset="0%" style="stop-color:#b0c4de;stop-opacity:1"/>
      <stop offset="50%" style="stop-color:#4d9ef7;stop-opacity:1"/>
      <stop offset="100%" style="stop-color:#1a73e8;stop-opacity:1"/>
    </linearGradient>
    <linearGradient id="g2" x1="0%" y1="0%" x2="100%" y2="100%">
      <stop offset="0%" style="stop-color:#1a73e8;stop-opacity:1"/>
      <stop offset="100%" style="stop-color:#0d47a1;stop-opacity:1"/>
    </linearGradient>
  </defs>
  <!-- Stylized Y/bird shape inspired by NOJOM logo -->
  <path d="M12 8 C8 12, 6 20, 14 28 C18 32, 22 36, 24 42 C24 42, 20 32, 24 24 C28 16, 36 12, 40 8 C36 10, 30 14, 26 20 C22 14, 16 10, 12 8Z" fill="url(#g1)"/>
  <path d="M24 24 C28 16, 36 12, 40 8 C44 14, 42 24, 36 30 C32 34, 28 38, 24 42 C24 42, 28 34, 28 28 C28 26, 26 24, 24 24Z" fill="url(#g2)"/>
</svg>
